<svg width="1042" height="1042" viewBox="0 0 1042 1042" fill="none" xmlns="http://www.w3.org/2000/svg">
<g filter="url(#filter0_d_863_666)">
<rect x="4" y="2" width="1024" height="1024" rx="256" fill="url(#paint0_linear_863_666)" shape-rendering="crispEdges"/>
</g>
<g filter="url(#filter1_d_863_666)">
<path d="M575.526 517.335C591.144 321.152 768.718 331.131 816.864 337.512C823.586 338.394 828.339 344.436 827.525 351.088C805.659 525.413 703.393 535.12 667.81 533.084C660.748 532.676 655.451 526.431 656.266 519.507C657.285 510.479 659.254 501.722 661.902 493.44C666.316 479.592 646.419 471.31 639.086 483.868C623.943 509.8 620.683 535.528 620.14 549.24C619.936 555.078 624.01 560.305 629.782 561.595C849.119 609.113 866.706 366.023 867.997 313.277C868.133 307.507 864.126 302.348 858.422 301.058C669.508 257.613 587.749 353.804 558.413 405.259C553.117 414.559 539.196 412.93 535.801 402.748C469.321 202.763 230.224 228.287 175.492 236.909C169.108 237.927 164.559 243.561 165.034 249.942C194.302 635.452 479.982 560.644 479.982 560.644C480.593 561.595 479.574 556.911 479.371 555.078C470 476.197 444.467 431.123 417.916 405.395C406.644 394.466 389.667 410.894 400.125 422.57C438.695 465.54 442.973 499.549 442.023 516.317C441.615 522.766 436.047 527.857 429.46 527.721C241.225 522.562 210.871 337.919 206.117 288.636C205.506 281.983 210.395 275.941 217.118 275.263C499.878 247.159 525.819 503.215 526.973 516.045C526.973 516.384 526.973 516.724 526.973 517.063L527.312 839.713C527.312 846.501 532.881 852 539.807 852H563.778C570.636 852 576.273 846.434 576.205 839.645L575.526 518.353C575.526 517.946 575.526 517.538 575.526 517.131V517.335Z" fill="white"/>
<path d="M575.526 517.335C591.144 321.152 768.718 331.131 816.864 337.512C823.586 338.394 828.339 344.436 827.525 351.088C805.659 525.413 703.393 535.12 667.81 533.084C660.748 532.676 655.451 526.431 656.266 519.507C657.285 510.479 659.254 501.722 661.902 493.44C666.316 479.592 646.419 471.31 639.086 483.868C623.943 509.8 620.683 535.528 620.14 549.24C619.936 555.078 624.01 560.305 629.782 561.595C849.119 609.113 866.706 366.023 867.997 313.277C868.133 307.507 864.126 302.348 858.422 301.058C669.508 257.613 587.749 353.804 558.413 405.259C553.117 414.559 539.196 412.93 535.801 402.748C469.321 202.763 230.224 228.287 175.492 236.909C169.108 237.927 164.559 243.561 165.034 249.942C194.302 635.452 479.982 560.644 479.982 560.644C480.593 561.595 479.574 556.911 479.371 555.078C470 476.197 444.467 431.123 417.916 405.395C406.644 394.466 389.667 410.894 400.125 422.57C438.695 465.54 442.973 499.549 442.023 516.317C441.615 522.766 436.047 527.857 429.46 527.721C241.225 522.562 210.871 337.919 206.117 288.636C205.506 281.983 210.395 275.941 217.118 275.263C499.878 247.159 525.819 503.215 526.973 516.045C526.973 516.384 526.973 516.724 526.973 517.063L527.312 839.713C527.312 846.501 532.881 852 539.807 852H563.778C570.636 852 576.273 846.434 576.205 839.645L575.526 518.353C575.526 517.946 575.526 517.538 575.526 517.131V517.335Z" stroke="white" stroke-width="18" stroke-miterlimit="10"/>
</g>
<defs>
<filter id="filter0_d_863_666" x="0" y="0" width="1042" height="1042" filterUnits="userSpaceOnUse" color-interpolation-filters="sRGB">
<feFlood flood-opacity="0" result="BackgroundImageFix"/>
<feColorMatrix in="SourceAlpha" type="matrix" values="0 0 0 0 0 0 0 0 0 0 0 0 0 0 0 0 0 0 127 0" result="hardAlpha"/>
<feMorphology radius="3" operator="dilate" in="SourceAlpha" result="effect1_dropShadow_863_666"/>
<feOffset dx="5" dy="7"/>
<feGaussianBlur stdDeviation="3"/>
<feComposite in2="hardAlpha" operator="out"/>
<feColorMatrix type="matrix" values="0 0 0 0 0 0 0 0 0 0 0 0 0 0 0 0 0 0 0.25 0"/>
<feBlend mode="normal" in2="BackgroundImageFix" result="effect1_dropShadow_863_666"/>
<feBlend mode="normal" in="SourceGraphic" in2="effect1_dropShadow_863_666" result="shape"/>
</filter>
<filter id="filter1_d_863_666" x="150.999" y="219" width="741.001" height="659" filterUnits="userSpaceOnUse" color-interpolation-filters="sRGB">
<feFlood flood-opacity="0" result="BackgroundImageFix"/>
<feColorMatrix in="SourceAlpha" type="matrix" values="0 0 0 0 0 0 0 0 0 0 0 0 0 0 0 0 0 0 127 0" result="hardAlpha"/>
<feOffset dx="5" dy="7"/>
<feGaussianBlur stdDeviation="5"/>
<feComposite in2="hardAlpha" operator="out"/>
<feColorMatrix type="matrix" values="0 0 0 0 0 0 0 0 0 0 0 0 0 0 0 0 0 0 0.25 0"/>
<feBlend mode="normal" in2="BackgroundImageFix" result="effect1_dropShadow_863_666"/>
<feBlend mode="normal" in="SourceGraphic" in2="effect1_dropShadow_863_666" result="shape"/>
</filter>
<linearGradient id="paint0_linear_863_666" x1="3.99999" y1="457" x2="935.5" y2="829.5" gradientUnits="userSpaceOnUse">
<stop offset="0.0336538" stop-color="#006641" stop-opacity="0.55"/>
<stop offset="0.403846" stop-color="#1A652F" stop-opacity="0.96"/>
<stop offset="0.673077" stop-color="#266427"/>
</linearGradient>
</defs>
</svg>
