<svg width="2534" height="794" viewBox="0 0 2534 794" fill="none" xmlns="http://www.w3.org/2000/svg">
<rect width="2534" height="794" rx="100" fill="white"/>
<path d="M303.95 180.5C345.094 180.5 380.248 187.408 409.389 201.245L409.396 201.248C411.376 202.152 413.312 203.098 415.16 204.087C417.295 205.257 418.657 207.469 418.657 209.915V276.013C418.657 279.55 415.842 282.482 412.31 282.603L391.517 283.294H391.514C388.603 283.41 385.982 281.533 385.052 278.779L384.967 278.51L374.42 241.379L374.419 241.377L374.298 240.992C373.642 239.087 372.272 237.443 370.432 236.609H370.433C355.388 229.609 336.201 226.145 312.942 226.145C287.616 226.145 268.535 230.178 255.772 238.311C242.971 246.467 236.574 258.717 236.574 274.976C236.574 292.821 243.255 307.686 256.64 319.493L257.282 320.054C271.01 331.913 292.344 343.09 321.199 353.56V353.561C356.359 366.467 382.689 383.189 400.227 403.708C417.756 424.217 426.524 448.547 426.524 476.728C426.524 509.587 415.506 536.209 393.526 556.726C371.56 577.231 339.668 587.5 297.769 587.5C278.704 587.5 259.811 585.084 241.134 580.21C215.868 573.299 197.217 565.581 185.141 557.114L185.14 557.113L184.828 556.88C183.318 555.67 182.5 553.79 182.5 551.817V482.088C182.5 478.638 185.17 475.775 188.59 475.519V475.541H210.488C213.381 475.541 215.952 477.43 216.796 480.243H216.797L230.326 525.198V525.199C230.787 526.766 231.713 528.16 233.063 529.138C247.933 539.908 271.234 545.228 302.87 545.228C324.314 545.227 341.603 539.582 354.598 528.245C367.631 516.911 374.18 502.638 374.18 485.46C374.18 468.545 367.329 452.542 353.608 437.504L352.95 436.789C338.821 421.53 314.656 407.534 280.522 394.771H280.523C216.136 370.459 184.186 336.476 184.186 292.959C184.186 256.371 195.773 228.514 218.849 209.349V209.348C241.962 190.108 270.333 180.5 303.95 180.5Z" fill="#266427" stroke="#266427"/>
<path d="M591.719 294.67C633.315 294.67 664.675 306.688 685.893 330.646C707.122 354.618 718.272 390.622 719.265 438.739V438.74C719.345 442.387 716.335 445.405 712.675 445.405H510.856V448.716C510.856 475.434 520.289 498.042 539.105 516.51C557.937 534.994 583.579 544.19 615.884 544.19C629.799 544.19 642.941 542.586 655.349 539.376C667.721 536.175 676.766 532.876 682.448 529.512L684.092 528.56L684.091 528.559C687.266 526.753 691.322 527.882 693.087 531.052L702.901 548.688V548.689C704.468 551.503 703.784 554.996 701.294 557.005L701.274 557.021L701.255 557.041H701.254V557.042H701.253V557.043H701.252V557.044H701.251V557.045H701.25V557.046H701.249V557.047H701.248V557.048H701.247V557.049H701.246V557.05H701.245V557.051H701.244V557.052H701.243V557.053H701.242V557.054L701.241 557.055H701.24V557.056H701.239V557.057H701.238V557.057H701.237V557.058H701.236V557.059H701.235V557.06H701.234V557.061H701.234V557.062H701.233V557.063H701.232V557.064H701.231V557.065H701.23C699.185 558.721 694.862 561.42 688.137 565.171C681.416 568.919 674.132 572.281 666.285 575.256L666.278 575.259C646.637 583.047 624.562 586.97 600.087 587.022V586.938H599.587C557.366 586.938 523.083 574.909 496.822 550.844H496.821C470.54 526.799 457.343 491.632 457.343 445.3C457.343 398.973 470.798 362.279 497.66 335.244C524.548 308.184 555.894 294.67 591.719 294.67ZM593.103 337.98C571.822 337.98 554.193 343.933 540.255 355.78H540.254C528.006 366.197 519.576 381.259 514.889 400.961V400.963C513.779 405.727 517.386 410.308 522.292 410.308H659.633C664.264 410.308 667.821 406.144 667.174 401.568L667.173 401.565L666.892 399.766C663.844 381.3 656.592 366.788 645.187 356.311L644.833 355.987L644.786 356.033C631.414 344.002 614.2 337.98 593.103 337.98Z" fill="#266427" stroke="#266427"/>
<path d="M1114.07 294.581C1143.21 294.581 1164.97 302.681 1179.45 318.84C1193.96 335.022 1201.24 357.11 1201.24 385.122V534.178C1201.24 537.227 1203.11 540.016 1205.92 541.157L1206.2 541.263L1246.96 556.39V556.391C1249.53 557.357 1251.26 559.81 1251.26 562.536V574.684C1251.26 578.3 1248.33 581.273 1244.67 581.274L1244.67 581.317H1111.39C1107.78 581.316 1104.8 578.382 1104.8 574.727V562.363C1104.8 559.712 1106.41 557.301 1108.86 556.298H1108.86L1145.04 541.384L1145.04 541.383C1147.87 540.225 1149.72 537.448 1149.72 534.394V404.835C1149.72 382.707 1146.08 366.117 1138.65 355.101C1131.22 344.057 1117.79 338.583 1098.6 338.583C1069.81 338.583 1044.96 348.4 1024.12 367.982C1022.31 369.65 1021.43 372.2 1021.89 374.623V374.624C1022.53 378.005 1022.83 381.519 1022.83 385.122V534.178C1022.83 537.227 1024.7 540.016 1027.52 541.157L1027.79 541.263L1068.55 556.39V556.391C1071.13 557.357 1072.85 559.809 1072.85 562.536V574.684C1072.85 578.3 1069.92 581.274 1066.26 581.274H932.596C928.98 581.274 926.007 578.339 926.007 574.684V562.32C926.007 559.669 927.614 557.258 930.062 556.255H930.063L966.246 541.34C969.072 540.182 970.923 537.405 970.923 534.351V404.792C970.923 382.663 967.244 366.074 959.857 355.059L959.856 355.058C952.42 344.013 938.993 338.54 919.801 338.54C889.828 338.54 862.905 350.057 839.004 373.091H839.003C837.52 374.527 836.689 376.516 836.689 378.595V534.264C836.689 537.409 838.588 540.187 841.501 541.343L841.504 541.345L880.237 556.389L880.24 556.39C882.764 557.351 884.414 559.798 884.414 562.536V574.771C884.414 578.387 881.48 581.359 877.825 581.359H744.159C740.543 581.359 737.569 578.426 737.569 574.771V562.493C737.569 559.8 739.218 557.352 741.743 556.39L741.748 556.388L779.963 541.387H779.965C782.876 540.231 784.776 537.455 784.776 534.351V345.61C784.776 341.446 781.398 338.021 777.186 338.021H744.116C740.5 338.021 737.526 335.087 737.526 331.432V309.341C737.526 306.763 739.017 304.357 741.374 303.317C754.877 297.511 770.112 294.581 787.043 294.581C805.426 294.581 817.967 298.556 824.812 306.39L825.134 306.766C829.591 312.09 832.787 319.195 834.662 328.07L834.84 328.936C836 334.78 843.224 336.944 847.479 332.828C851.443 328.994 855.839 325.114 860.93 320.886C882.934 303.36 907.769 294.581 935.363 294.581C972.319 294.581 997.668 307.877 1011.61 334.388V334.389C1014.03 338.953 1020.29 339.524 1023.79 335.794C1049.55 308.304 1079.64 294.581 1114.07 294.581Z" fill="#266427" stroke="#266427"/>
<path d="M1499.94 365.801C1509.88 240.868 1622.93 247.223 1653.58 251.286C1657.86 251.848 1660.88 255.696 1660.36 259.932C1646.44 370.946 1581.34 377.127 1558.69 375.831C1554.19 375.571 1550.82 371.594 1551.34 367.185C1551.99 361.435 1553.24 355.858 1554.93 350.584C1557.74 341.766 1545.07 336.492 1540.4 344.489C1530.76 361.003 1528.69 377.387 1528.34 386.119C1528.21 389.837 1530.81 393.166 1534.48 393.987C1674.11 424.248 1685.31 269.443 1686.13 235.853C1686.22 232.179 1683.67 228.893 1680.03 228.072C1559.77 200.405 1507.72 261.661 1489.05 294.429C1485.67 300.352 1476.81 299.314 1474.65 292.83C1432.33 165.476 1280.12 181.73 1245.28 187.22C1241.21 187.869 1238.32 191.457 1238.62 195.52C1257.25 441.021 1439.12 393.382 1439.12 393.382C1439.51 393.987 1438.86 391.004 1438.73 389.837C1432.76 339.604 1416.51 310.9 1399.6 294.516C1392.43 287.556 1381.62 298.017 1388.28 305.453C1412.83 332.817 1415.56 354.475 1414.95 365.153C1414.69 369.26 1411.15 372.502 1406.95 372.415C1287.12 369.13 1267.8 251.546 1264.77 220.161C1264.38 215.925 1267.49 212.077 1271.77 211.645C1451.78 193.748 1468.3 356.81 1469.03 364.98C1469.03 365.196 1469.03 365.412 1469.03 365.628L1469.25 571.098C1469.25 575.421 1472.79 578.923 1477.2 578.923H1492.46C1496.83 578.923 1500.42 575.378 1500.37 571.055L1499.94 366.45C1499.94 366.19 1499.94 365.931 1499.94 365.672V365.801Z" fill="#266427" stroke="#266427" stroke-width="15" stroke-miterlimit="10"/>
<path d="M1919.31 294.628C1947.7 294.628 1969.07 302.724 1983.56 318.886C1998.07 335.068 2005.35 357.157 2005.35 385.169V534.224C2005.35 537.273 2007.22 540.063 2010.03 541.204L2010.31 541.309L2051.07 556.436V556.437C2053.64 557.403 2055.37 559.856 2055.37 562.583V574.73C2055.37 578.346 2052.44 581.32 2048.78 581.32H1915.42C1911.8 581.32 1908.83 578.386 1908.83 574.73V562.367C1908.83 559.715 1910.43 557.305 1912.88 556.301H1912.88L1949.07 541.386C1951.89 540.228 1953.74 537.451 1953.74 534.397V404.839C1953.74 382.709 1950.06 366.12 1942.68 355.105V355.104C1935.24 344.059 1921.81 338.587 1902.62 338.587C1872.65 338.587 1845.73 350.103 1821.82 373.137H1821.82C1820.34 374.573 1819.51 376.563 1819.51 378.641V534.311C1819.51 537.456 1821.41 540.233 1824.32 541.389L1824.32 541.391L1863.06 556.435L1863.06 556.436C1865.58 557.398 1867.23 559.844 1867.23 562.583V574.817C1867.23 578.433 1864.3 581.407 1860.65 581.407H1726.98C1723.36 581.407 1720.39 578.473 1720.39 574.817V562.54C1720.39 559.846 1722.04 557.398 1724.56 556.436L1724.57 556.434L1762.78 541.433H1762.79C1765.7 540.278 1767.6 537.501 1767.6 534.397V345.657C1767.6 341.492 1764.22 338.067 1760.01 338.067H1726.94C1723.32 338.067 1720.35 335.134 1720.35 331.478V309.387C1720.35 306.81 1721.84 304.404 1724.19 303.363C1737.7 297.557 1752.93 294.628 1769.86 294.628C1788.25 294.628 1800.79 298.603 1807.63 306.436L1807.95 306.812C1812.41 312.136 1815.61 319.242 1817.48 328.117L1817.66 328.982C1818.82 334.826 1826.04 336.991 1830.3 332.875C1834.26 329.04 1838.66 325.161 1843.75 320.932C1865.75 303.409 1890.93 294.628 1919.31 294.628Z" fill="#266427" stroke="#266427"/>
<path d="M2205.71 294.539C2245.74 294.539 2274.07 302.49 2290.79 318.266C2307.53 334.057 2315.92 356.305 2315.92 385.08V536.47C2315.92 540.634 2319.3 544.059 2323.51 544.059H2356.58C2360.2 544.059 2363.17 546.994 2363.17 550.649V550.959L2363.26 551.002V572.783C2363.26 575.364 2361.77 577.767 2359.41 578.764L2359.41 578.766C2345.99 584.572 2331.32 587.5 2315.43 587.5C2297.83 587.5 2285.36 584.131 2277.8 577.508L2277.36 577.113C2272.96 573.131 2269.68 568.096 2267.52 561.997L2267.31 561.383C2265.55 556.146 2258.79 554.573 2254.9 558.466L2254.9 558.468C2235.72 577.778 2211.77 587.456 2183.02 587.456C2149.53 587.456 2124.28 580.722 2107.15 567.331C2090.04 553.95 2081.5 535.169 2081.5 510.965C2081.5 487.687 2089.59 469.386 2105.76 456.005C2121.95 442.605 2146.29 434.096 2178.83 430.535L2257.38 422.236H2257.38C2261.22 421.82 2264.14 418.579 2264.14 414.692V404.75C2264.14 382.947 2259.63 366.347 2250.54 354.983C2241.43 343.586 2226.99 337.935 2207.44 337.935C2171.45 337.935 2142.16 341.872 2119.61 349.765L2115.46 351.191H2115.46C2111.88 352.437 2107.98 350.428 2106.94 346.771H2106.94L2100.41 323.602H2100.41C2099.57 320.545 2100.98 317.293 2103.82 315.888L2103.82 315.889C2114.06 310.982 2128.2 306.366 2146.26 302.091C2167.58 297.04 2187.38 294.539 2205.71 294.539ZM2264.23 465.53C2264.23 461.037 2260.29 457.524 2255.81 457.986L2255.8 457.987L2181.58 466.114L2181.57 466.115C2167.29 468.025 2155.82 472.329 2147.3 479.146L2146.19 480.037H2146.27C2138.43 486.785 2134.53 495.71 2134.53 506.771C2134.53 518.341 2139.19 527.529 2148.53 534.152V534.153C2157.81 540.807 2170.77 544.102 2187.3 544.102C2217.13 544.102 2241.84 536.383 2261.4 520.867V520.866C2263.21 519.427 2264.23 517.205 2264.23 514.941V465.53Z" fill="#266427" stroke="#266427"/>
</svg>
